<svg id="Layer_1" data-name="Layer 1" xmlns="http://www.w3.org/2000/svg" viewBox="0 0 154.35 119.86"><defs><style>.cls-1{fill:#E8A020;}.cls-2,.cls-3,.cls-4,.cls-5,.cls-6{isolation:isolate;}.cls-3,.cls-4,.cls-5,.cls-6{font-size:28.52px;fill:#0C0B08;font-family:Arial-BoldItalicMT, Arial;font-weight:700;font-style:italic;}.cls-3{letter-spacing:-0.05em;}.cls-5{letter-spacing:-0.01em;}.cls-6{letter-spacing:-0.02em;}</style></defs><path class="cls-1" d="M114.08,61.13H65.93L63.2,67.24h53.64ZM92.72,13.37H87.26L67.71,57.14H112.3ZM90,29.69,98,48.32H82.08Z"/><polygon class="cls-1" points="83.54 13.38 64.03 57.14 62.25 61.13 59.51 67.29 53.81 67.29 56.55 61.13 58.34 57.14 77.84 13.38 83.54 13.38"/><polygon class="cls-1" points="74.31 13.38 50.28 67.29 44.58 67.29 68.61 13.38 74.31 13.38"/><polygon class="cls-1" points="65.01 13.38 45.5 57.14 43.72 61.13 40.98 67.29 35.28 67.29 38.03 61.13 39.81 57.14 59.31 13.38 65.01 13.38"/><g class="cls-2"><text class="cls-3" transform="translate(14.72 95.75)">A</text><text class="cls-4" transform="translate(33.48 95.75)">sce</text><text class="cls-5" transform="translate(80.5 95.75)">nt</text><text class="cls-4" transform="translate(108.91 95.75)">o</text><text class="cls-6" transform="translate(126.47 95.75)">r</text></g></svg>
