<svg id="Layer_1" width="381" height="101" data-name="Layer 1" xmlns="http://www.w3.org/2000/svg" viewBox="0 0 380.8 101.16"><defs><style>.cls-1{fill:#C8A96E;}.cls-2,.cls-3,.cls-4,.cls-5{isolation:isolate;font-size:55.62px;fill:#0F0F0E;font-family:Arial-BoldItalicMT, Arial;font-weight:700;font-style:italic;}.cls-2{letter-spacing:-0.05em;}.cls-4{letter-spacing:-0.01em;}.cls-5{letter-spacing:-0.02em;}</style></defs><path class="cls-1" d="M98.93,66.56H50.79l-2.73,6.11h53.63ZM77.58,18.8H72.12L52.57,62.57H97.15Zm-2.7,16.31,7.93,18.63H66.94Z"/><polygon class="cls-1" points="68.39 18.81 48.89 62.57 47.11 66.56 44.36 72.71 38.67 72.71 41.41 66.56 43.19 62.57 62.7 18.81 68.39 18.81"/><polygon class="cls-1" points="59.17 18.81 35.14 72.71 29.44 72.71 53.47 18.81 59.17 18.81"/><polygon class="cls-1" points="49.87 18.81 30.36 62.57 28.58 66.56 25.84 72.71 20.14 72.71 22.89 66.56 24.67 62.57 44.17 18.81 49.87 18.81"/><text class="cls-2" transform="translate(116.3 63.96)">A</text><text class="cls-3" transform="translate(152.9 63.96)">sce</text><text class="cls-4" transform="translate(244.63 63.96)">nt</text><text class="cls-3" transform="translate(300.03 63.96)">o</text><text class="cls-5" transform="translate(334.29 63.96)">r</text></svg>
